<?xml version="1.0" encoding="UTF-8"?><svg id="Ebene_1" xmlns="http://www.w3.org/2000/svg" viewBox="0 0 373.41 221.87"><defs><style>.cls-1{fill:#00dd8d;}.cls-2{fill:#0f0f0f;}</style></defs><path class="cls-1" d="M144.37,79.74C111.62-34.77,7.16,124.21,117.72,120.3c-110.56,3.91,8.35,152.39,30.34,37.88-21.99,114.51,155.96,47.29,45.4-17.15,110.56,64.44,101.63-125.57-2.28-48.48,103.91-77.1-79.56-127.32-46.81-12.81Z"/><g><path class="cls-2" d="M114.34,104.31c3.62-1.29,7.17,.19,8.7,4.49,.79,2.22,.3,3.85-.86,5.63-.17,.27-.3,.58-.2,.87,.15,.42,.59,.65,.99,.51,.26-.09,.49-.29,.72-.64,1.01-1.52,2-3.92,.94-6.91-.36-1-.72-1.68-1.17-2.29l8.67-6.56c1.43-1.08,3.21-2.03,4.34-2.44,4.57-1.62,7.64-.18,9.14,4.04,1.5,4.23,.06,6.88-3.77,9.22l-7.38,4.5c-1.39,.85-2.93,1.96-3.56,2.63-.35,.36-.45,.67-.33,1.01,.16,.45,.59,.65,1.04,.49,.29-.1,.57-.41,.79-.61,.68-.6,1.87-1.44,3.58-2.49l5.63-3.4c5.22-.87,8-.08,9.44,3.96,1.49,4.2,.03,7.28-4.59,8.92-1.93,.68-4.35,1.25-6.42,1.45l-12.02,1.08c-8.01,.73-14.55-2.12-17.78-11.2-1.98-5.57-.09-10.8,4.09-12.28Z"/><path class="cls-2" d="M140.02,131.08c8.09-5.89,16.39-4.62,21.66,2.6s3.92,15.52-4.17,21.41c-8.09,5.89-16.39,4.62-21.66-2.6-5.26-7.23-3.92-15.52,4.17-21.41Zm4.44,15.14c.35,.47,.83,.43,1.26,.12l7.07-5.15c.45-.33,.62-.77,.28-1.24-.35-.48-.81-.45-1.27-.12l-7.07,5.15c-.43,.31-.62,.77-.28,1.24Z"/><path class="cls-2" d="M189.6,169.76l-10.07,13.36c-2.67,3.53-6.84,4.28-10.33,1.65-1.75-1.32-2.68-2.83-3-4.3,2.22-.29,4.09-1.19,4.85-1.68,.24-.13,.4-.26,.57-.48,.22-.29,.17-.78-.16-1.04-.34-.25-.69-.24-1.14-.02-1.45,.8-2.99,1.4-4.4,1.56-2.54,.3-4.96-.27-7.06-1.85-4.63-3.49-5.29-9.18-.66-15.31l7.49-9.93c2.67-3.53,6.82-4.3,10.27-1.7,3.33,2.51,3.7,6.68,1.03,10.22l-6.63,8.79c-.32,.42-.37,.91,.1,1.27,.47,.35,.92,.17,1.25-.25l6.63-8.79c2.67-3.53,6.78-4.33,10.13-1.8,3.42,2.58,3.83,6.79,1.17,10.32Z"/><path class="cls-2" d="M200.46,191.47l-.69-9.27c-.14-1.88-.22-3.94,.18-6.09,.87-4.77,3.93-6.66,8.06-5.9,4.36,.8,6.09,3.62,5.97,7.85l-.23,8.22c-.05,1.82-.02,3.67,.38,4.92,.15,.43,.36,.67,.69,.73,.47,.09,.87-.21,.95-.65,.05-.27-.04-.72-.11-.96-.24-.84-.28-2.53-.21-4.77l.2-6.86c1.61-3.95,4.37-6.26,8.28-5.55,4.52,.83,6.39,3.68,6.27,7.9l-.23,8.22c-.05,1.82-.02,3.67,.38,4.92,.15,.43,.36,.67,.69,.73,.47,.09,.86-.21,.95-.65,.05-.27-.04-.72-.11-.96-.24-.84-.28-2.53-.21-4.77l.21-6.91c1.58-3.96,4.3-6.22,7.97-5.55,4.35,.8,6.54,3.65,5.65,8.48-.37,2.01-.93,3.85-1.77,5.74l-3.72,8.49c-1.97,4.51-5.9,8.58-11.5,7.55-4.36-.8-6.04-4.96-6.56-9.27,.5-1.47,.94-2.93,1.15-4.12,.1-.52-.13-.99-.63-1.08-.36-.07-.68,.13-.81,.37-.12,.18-.22,.42-.26,.66-.14,.77-.78,3.3-2,5.9-1.38,2.88-5.09,4.94-10.3,3.98-5.62-1.03-8.3-6.31-8.67-11.28Z"/><path class="cls-2" d="M252.68,163.61c4.62-.55,7.78,2.31,8.25,6.24,.48,3.98-1.94,7.4-6.56,7.95s-7.8-2.2-8.27-6.18c-.47-3.92,1.96-7.46,6.58-8.01Zm9.29,16.78l2,16.78c.53,4.4-1.89,7.79-6.29,8.32-4.34,.52-7.57-2.2-8.1-6.59l-2.01-16.78c-.18-1.5,.02-2.88,.53-4.07,1.82,1.25,4.18,1.7,6.46,1.43,2.28-.27,4.48-1.27,5.92-2.88,.77,1.01,1.29,2.3,1.47,3.8Z"/><path class="cls-2" d="M269.73,196.68l-5.64-15.75c-1.49-4.17,.17-8.07,4.29-9.55,2.06-.74,3.86-.7,5.26-.19-.96,2.04-1.24,4.11-1.27,5.01,0,.24,0,.44,.11,.73,.12,.34,.56,.57,.93,.44,.4-.14,.6-.48,.64-.95,.15-1.66,.47-3.26,1.13-4.57,1.12-2.28,2.95-3.98,5.41-4.86,5.49-1.97,10.58,.62,13.17,7.85l4.2,11.72c1.49,4.17-.15,8.06-4.18,9.51-3.96,1.42-7.65-.57-9.14-4.73l-3.71-10.37c-.19-.53-.56-.81-1.11-.61-.55,.2-.66,.65-.47,1.18l3.72,10.37c1.49,4.17-.1,8.04-4.03,9.45-4.06,1.46-7.8-.51-9.3-4.68Z"/><path class="cls-2" d="M310.62,174.49l-14.37-17.65c-2.79-3.43-2.52-7.67,.87-10.43,3.37-2.74,7.39-2.15,10.23,1.11l.58,.72c-1.61,1.31-2.7,2.67-3.28,4.19-.14,.4-.07,.71,.12,.95,.26,.33,.76,.4,1.1,.11,.17-.14,.29-.35,.42-.6,.49-1.08,1.39-2.25,2.71-3.33,1.87-1.52,4.89-1.23,6.9,1.25,1.98,2.43,1.91,5.24-.22,6.97l3.75,4.61c-.32,.19-.73,.48-1.03,.73-1.11,.9-2.09,2.14-2.64,3.41-.16,.38-.13,.68,.08,.95,.28,.35,.79,.44,1.16,.14,.2-.16,.28-.41,.45-.73,.33-.74,1.05-1.69,1.81-2.3,2.48-2.02,5.88-1.39,8.07,1.31,2.51,3.09,2.36,7.29-1.64,10.55-4.5,3.66-10.73,3.42-15.1-1.95Z"/><path class="cls-2" d="M324.03,157.68c-7.91-6.13-9-14.46-3.53-21.53,5.48-7.07,13.82-8.08,21.73-1.96,7.91,6.13,9,14.46,3.53,21.53-5.48,7.07-13.82,8.08-21.73,1.95Zm13.31-8.48c.36-.46,.18-.92-.24-1.25l-6.91-5.36c-.44-.34-.91-.38-1.27,.08-.36,.46-.21,.91,.24,1.25l6.91,5.36c.42,.33,.91,.38,1.27-.08Z"/><path class="cls-2" d="M344.26,130.64c-9.33-3.61-12.77-11.27-9.55-19.61,3.22-8.34,10.92-11.71,20.25-8.1,9.33,3.6,12.77,11.27,9.55,19.61-3.22,8.34-10.92,11.71-20.25,8.1Zm10.32-11.94c.21-.55-.09-.94-.59-1.13l-8.16-3.15c-.52-.2-.98-.11-1.19,.44-.21,.55,.06,.93,.59,1.13l8.16,3.15c.5,.19,.98,.11,1.19-.44Z"/><path class="cls-2" d="M363.56,101.42c-4.21-.64-6.92-4.31-6.28-8.52,.64-4.21,4.31-6.92,8.52-6.28s6.92,4.31,6.28,8.52c-.64,4.21-4.31,6.92-8.52,6.28Z"/></g><g><path d="M21.4,116.54c1.06-4.73,4.97-6.85,8.99-5.95,4.07,.91,6.6,4.47,5.55,9.2-1.06,4.73-4.86,6.9-8.94,5.99-4.02-.9-6.65-4.51-5.6-9.24Zm19.71-3.32l17.19,3.84c4.5,1,7,4.55,6,9.06-.99,4.45-4.78,6.68-9.29,5.68l-17.19-3.84c-1.54-.34-2.82-1.02-3.82-1.93,1.86-1.35,3.12-3.52,3.64-5.86s.3-4.84-.78-6.82c1.26-.41,2.71-.47,4.25-.13Z"/><path d="M58.48,115.73l-21.74-9.46c-6.61-2.88-8.6-9.06-6.19-14.6,2.32-5.33,6.59-6.88,10.39-5.22,3.13,1.36,4.68,4.46,2.99,8.34-.37,.86-.9,1.77-1.75,2.55-.17,.18-.32,.3-.43,.55-.19,.43-.02,.92,.41,1.1,.35,.15,.67,.07,.99-.14,1.07-.84,1.86-2.15,2.42-3.44,.49-1.12,.76-2.92,.74-3.6,1.76-1.4,3.2-1.63,5.52-.62,3.24,1.41,4.08,4.32,3.17,6.41-.54,1.23-1.51,2.37-2.68,3.67-.15,.13-.3,.32-.39,.53-.17,.4,0,.89,.42,1.08s.84-.02,1.07-.27c1.15-1.19,2.02-2.15,3.12-4.18l7.95,3.46c4.23,1.84,6,5.89,4.19,10.04-1.82,4.18-5.99,5.64-10.22,3.8Z"/><path d="M71.19,83.93l-7.97-5.5c-1.61-1.11-3.34-2.4-4.83-4.12-3.3-3.83-2.83-7.54,.48-10.39,3.49-3.01,6.92-2.57,10.26,.29l6.52,5.55c1.44,1.22,2.97,2.41,4.23,2.9,.44,.16,.78,.14,1.04-.09,.38-.32,.39-.84,.09-1.19-.19-.22-.61-.44-.85-.54-.84-.35-2.23-1.43-4-2.95l-5.43-4.64c-2.15-3.88-2.23-7.64,.91-10.34,3.63-3.12,7.16-2.78,10.51,.08l6.52,5.55c1.44,1.22,2.97,2.41,4.23,2.9,.44,.16,.78,.14,1.04-.09,.38-.32,.39-.84,.09-1.19-.19-.22-.61-.44-.85-.54-.84-.35-2.23-1.43-4-2.95l-5.47-4.69c-2.18-3.87-2.23-7.55,.71-10.09,3.49-3.01,7.23-2.92,10.57,.95,1.39,1.61,2.51,3.27,3.51,5.18l4.46,8.57c2.37,4.54,3.1,10.39-1.39,14.26-3.49,3.01-7.97,1.67-11.8-.73-.87-1.37-1.77-2.68-2.59-3.63-.36-.42-.89-.54-1.29-.2-.29,.25-.34,.64-.23,.89,.07,.21,.2,.45,.37,.65,.53,.62,2.17,2.79,3.48,5.47,1.43,3,.67,7.35-3.5,10.96-4.51,3.89-10.54,2.61-14.81-.33Z"/><path d="M104.3,49.39c-3.01-9.27,.48-17.52,9.75-20.53,8.97-2.91,16.31,.33,18.42,6.85,1.18,3.64,.6,6.1-1.34,8.26-1.91,.93-5.37,2.26-7.15,2.84-3.8,1.23-5.3,1.07-5.85,1.25-.47,.15-.73,.6-.58,1.05,.13,.42,.51,.63,1,.63,1.1-.02,3.42-.43,5.97-1.26,1.81-.59,4.78-1.92,6.25-2.4,2.22-.72,4.39,.2,5.27,2.92,1.31,4.03-3.15,8.73-10.54,11.12-10.25,3.32-18.15-1.29-21.22-10.73Zm13.99-7.18c.58-.19,.7-.69,.53-1.21l-1.28-3.94c-.18-.56-.56-.86-1.14-.67-.58,.19-.71,.66-.53,1.21l1.28,3.94c.17,.53,.56,.86,1.14,.67Z"/><path d="M150.37,44.16l-.64-9.67c-.13-1.96-.19-4.11,.24-6.34,.95-4.96,4.15-6.9,8.45-6.08,4.53,.87,6.31,3.83,6.15,8.23l-.3,8.56c-.07,1.89-.05,3.83,.36,5.12,.15,.45,.37,.7,.72,.76,.49,.09,.9-.21,.99-.67,.05-.29-.03-.75-.11-1-.25-.88-.27-2.64-.18-4.97l.27-7.14c1.71-4.1,4.6-6.49,8.68-5.71,4.7,.9,6.62,3.89,6.46,8.29l-.31,8.56c-.07,1.89-.05,3.83,.35,5.12,.15,.45,.37,.7,.72,.76,.49,.09,.9-.21,.99-.67,.05-.29-.03-.75-.1-1-.25-.88-.27-2.64-.18-4.97l.28-7.2c1.68-4.11,4.54-6.44,8.35-5.71,4.53,.87,6.78,3.86,5.82,8.87-.4,2.09-1.01,4-1.89,5.97l-3.95,8.81c-2.09,4.68-6.22,8.88-12.04,7.77-4.53-.87-6.25-5.21-6.76-9.71,.53-1.53,1-3.05,1.24-4.28,.1-.54-.13-1.04-.64-1.13-.37-.07-.71,.13-.84,.37-.12,.18-.23,.43-.28,.69-.15,.8-.84,3.44-2.13,6.13-1.47,2.99-5.35,5.1-10.77,4.06-5.85-1.12-8.59-6.64-8.94-11.82Z"/><path d="M215.56,49.52l-8.74,15.28c-2.29,4-6.42,5.34-10.43,3.05-3.95-2.26-4.97-6.54-2.68-10.55l8.74-15.28c.78-1.37,1.81-2.4,2.97-3.08,.74,2.17,2.44,4.02,4.52,5.21,2.08,1.19,4.53,1.72,6.74,1.27,.02,1.32-.35,2.73-1.13,4.09Zm2.65-19.81c4.21,2.41,5.07,6.77,3.03,10.34-2.07,3.62-6.22,4.99-10.42,2.58-4.21-2.41-5.16-6.68-3.08-10.31,2.04-3.57,6.27-5.02,10.48-2.62Z"/><path d="M208.37,64.69l12.11-12.54c3.2-3.32,7.62-3.56,10.89-.4,1.64,1.58,2.43,3.28,2.6,4.83-2.35,.04-4.41,.74-5.27,1.12-.22,.11-.41,.21-.63,.44-.26,.27-.28,.79,.02,1.07,.32,.3,.73,.34,1.18,.17,1.62-.63,3.26-1.07,4.79-1.06,2.64,0,5.07,.92,7.03,2.81,4.37,4.22,4.31,10.17-1.25,15.92l-9,9.33c-3.2,3.32-7.6,3.58-10.81,.48-3.15-3.04-3-7.4,.2-10.72l7.97-8.26c.41-.42,.5-.9,.06-1.32-.44-.42-.91-.31-1.32,.11l-7.97,8.26c-3.2,3.32-7.56,3.62-10.69,.6-3.24-3.12-3.13-7.52,.08-10.84Z"/></g></svg>